<svg xmlns="http://www.w3.org/2000/svg" viewBox="0 0 160 160" role="img" aria-labelledby="title desc">
  <title id="title">Logotipo del centro</title>
  <desc id="desc">Símbolo abstracto con figuras que representan apoyo y cuidado.</desc>
  <defs>
    <linearGradient id="grad" x1="0%" y1="0%" x2="100%" y2="100%">
      <stop offset="0%" stop-color="#2c5282" />
      <stop offset="100%" stop-color="#68d391" />
    </linearGradient>
  </defs>
  <rect width="160" height="160" rx="24" fill="#f7fafc" />
  <path d="M80 30c-18 0-32 14-32 32s14 32 32 32 32-14 32-32-14-32-32-32zm0 48a16 16 0 1 1 16-16 16 16 0 0 1-16 16z" fill="url(#grad)" />
  <path d="M36 116c0-24 20-44 44-44s44 20 44 44v8a12 12 0 0 1-12 12H48a12 12 0 0 1-12-12z" fill="#2c5282" opacity="0.85" />
  <circle cx="116" cy="44" r="14" fill="#68d391" opacity="0.85" />
</svg>
